<svg width="30" height="30" viewBox="0 0 30 30" fill="none" xmlns="http://www.w3.org/2000/svg">
<rect width="30" height="30" rx="15" fill="white"/>
<path d="M4.06802 13.7062L4.03836 13.714H16.7523L12.7555 8.89139C12.5598 8.65594 12.4524 8.33699 12.4524 8.00223C12.4524 7.66747 12.5598 7.35075 12.7555 7.11475L13.3774 6.36563C13.573 6.13018 13.8336 6 14.1114 6C14.3895 6 14.6502 6.12925 14.8458 6.3647L21.6971 14.6126C21.8934 14.849 22.0008 15.1638 22 15.4988C22.0008 15.8356 21.8934 16.1506 21.6971 16.3866L14.8458 24.6353C14.6502 24.8706 14.3896 25 14.1114 25C13.8336 25 13.573 24.8704 13.3774 24.6353L12.7555 23.8862C12.5598 23.6511 12.4524 23.3372 12.4524 23.0024C12.4524 22.6678 12.5598 22.3705 12.7555 22.1352L16.7974 17.2857H4.0538C3.48118 17.2857 3 16.6915 3 16.0024V14.9429C3 14.2539 3.49539 13.7062 4.06802 13.7062Z" fill="#28303B"/>
<path d="M12.5 8.49997L18.5 15.5L10.5511 24.7531L12.5 8.49997Z" fill="white"/>
<ellipse cx="9" cy="15.5" rx="6" ry="5.5" fill="white"/>
</svg>
